<svg width="35" height="18" viewBox="0 0 35 18" fill="none" xmlns="http://www.w3.org/2000/svg">
<path d="M13.9614 0.807999H17.1294L14.8194 17H11.6514L13.0594 7.122L8.92341 17H5.90941L6.34941 7.078L2.67541 17H0.915406L6.50341 1.886C5.37407 2.26733 4.50874 2.88333 3.90741 3.734C3.30607 4.58467 3.00541 5.61867 3.00541 6.836C3.00541 7.12933 3.02007 7.386 3.04941 7.606C3.09341 7.81133 3.15941 8.002 3.24741 8.178C3.27674 8.23667 3.29141 8.28067 3.29141 8.31C3.30607 8.32467 3.31341 8.33933 3.31341 8.354C2.52141 8.354 1.92741 8.19267 1.53141 7.87C1.15007 7.53267 0.959406 7.02667 0.959406 6.352C0.959406 5.648 1.17207 4.93667 1.59741 4.218C2.03741 3.48467 2.63874 2.81733 3.40141 2.216C4.09074 1.67333 4.83141 1.25533 5.62341 0.961999C6.41541 0.653999 7.19274 0.499999 7.95541 0.499999C8.23407 0.499999 8.51274 0.529332 8.79141 0.587999C9.08474 0.631999 9.36341 0.705332 9.62741 0.807999L9.12141 12.402L13.9614 0.807999ZM22.1918 3.074C22.1918 3.558 22.0158 3.96867 21.6638 4.306C21.3265 4.64333 20.9158 4.812 20.4318 4.812C19.9478 4.812 19.5371 4.64333 19.1998 4.306C18.8625 3.96867 18.6938 3.558 18.6938 3.074C18.6938 2.59 18.8625 2.17933 19.1998 1.842C19.5371 1.49 19.9478 1.314 20.4318 1.314C20.9158 1.314 21.3265 1.49 21.6638 1.842C22.0158 2.17933 22.1918 2.59 22.1918 3.074ZM16.5818 14.492C16.5818 14.3013 16.5965 14.0887 16.6258 13.854C16.6551 13.6047 16.6991 13.3407 16.7578 13.062L18.2538 6H21.4218L19.8378 13.48C19.8085 13.612 19.7865 13.7367 19.7718 13.854C19.7571 13.9567 19.7498 14.0667 19.7498 14.184C19.7498 14.4773 19.8158 14.69 19.9478 14.822C20.0945 14.9393 20.3291 14.998 20.6518 14.998C21.0625 14.998 21.4511 14.822 21.8178 14.47C22.1845 14.1033 22.4558 13.634 22.6318 13.062H23.5558C23.0865 14.3967 22.4558 15.4087 21.6638 16.098C20.8718 16.7873 19.9625 17.132 18.9358 17.132C18.2025 17.132 17.6231 16.9047 17.1978 16.45C16.7871 15.9807 16.5818 15.328 16.5818 14.492ZM27.7972 14.646C27.7972 14.382 27.8265 14.052 27.8852 13.656C27.9585 13.26 28.0978 12.6293 28.3032 11.764C28.5085 10.928 28.6405 10.3267 28.6992 9.96C28.7578 9.59333 28.7872 9.28533 28.7872 9.036C28.7872 8.66933 28.7212 8.39067 28.5892 8.2C28.4572 8.00933 28.2592 7.914 27.9952 7.914C27.6432 7.914 27.3132 8.09733 27.0052 8.464C26.7118 8.816 26.4698 9.30733 26.2792 9.938L24.7832 17H21.6152L23.9472 6H27.1152L26.8732 7.144C27.2398 6.73333 27.6358 6.42533 28.0612 6.22C28.4865 6.01467 28.9485 5.912 29.4472 5.912C30.2245 5.912 30.8258 6.12467 31.2512 6.55C31.6765 6.97533 31.8892 7.59133 31.8892 8.398C31.8892 8.73533 31.8452 9.13867 31.7572 9.608C31.6838 10.0627 31.5298 10.7667 31.2952 11.72C31.1045 12.468 30.9798 12.996 30.9212 13.304C30.8625 13.612 30.8332 13.8687 30.8332 14.074C30.8332 14.382 30.9065 14.6167 31.0532 14.778C31.1998 14.9247 31.4198 14.998 31.7132 14.998C32.0798 14.998 32.3952 14.8733 32.6592 14.624C32.9232 14.3747 33.2238 13.854 33.5612 13.062H34.4852C34.0158 14.426 33.4438 15.4453 32.7692 16.12C32.1092 16.7947 31.3172 17.132 30.3932 17.132C29.5718 17.132 28.9338 16.912 28.4792 16.472C28.0245 16.0173 27.7972 15.4087 27.7972 14.646Z" fill="#30CCCC"/>
</svg>
